<?xml version="1.0" encoding="UTF-8"?>
<svg id="a" data-name="Livello_1" xmlns="http://www.w3.org/2000/svg" viewBox="0 0 307.77 303">
  <g id="b" data-name="PBETEf.tif">
    <g>
      <path d="M117.45,67.36c-.14-8.63,1.7-16.23,8.9-19.62,6.31-2.98,13.75-3.57,21.51-5.41.73-3.72,1.2-7.82-4.57-11.1-6.4-3.63-8.44-12.09-6.11-19.4C139.44,4.73,146.09,0,153.82,0c7.74,0,14.4,4.7,16.68,11.8,2.34,7.28.3,15.81-6.07,19.41-5.51,3.11-5.3,7.15-4.38,12.74,16.53-1.43,29.59,2.55,30.35,23.4,4.86,0,9.63-.32,14.34.07,9.22.76,18.75.69,27.53,3.16,22.23,6.24,37.81,20.74,46.82,42.02,1.32,3.11,2.78,4.23,6.15,4.23,14.59.02,22.36,7.89,22.47,22.46.07,9.13.07,18.27,0,27.4-.11,14.05-6.85,21.4-21.03,22.36-3.82.26-3.61,2.88-4.16,5.04-5.18,20.59-16.91,36.41-35.56,46.34-7.6,4.05-16.34,6.19-24.78,8.32-3.74.94-4.85,2.1-4.8,5.77.19,11.62,0,23.25.1,34.87.05,5.62-1.58,10.22-7.03,12.57-5.4,2.33-9.88.48-14.01-3.36-16.29-15.15-32.71-30.15-48.98-45.32-2.59-2.41-5.18-3.49-8.8-3.5-17.09-.04-34.26.52-51.25-.88-29.5-2.42-54.37-24.17-61.84-52.8-1.2-4.59-2.2-7.23-8.07-7.29-8.73-.08-16.51-7.86-16.97-16.69-.64-12.58-.76-25.23-.1-37.8.53-10.19,8.66-17.52,18.9-17.45,5.75.04,8.02-2.18,10.46-7.15,13.62-27.79,36.35-41.68,67.21-42.35,6.6-.14,13.21-.02,20.45-.02ZM204.59,290.69c.42-.18.84-.35,1.27-.53,0-1.78-.02-3.57,0-5.35.14-13.28.24-26.56.44-39.84.1-6.56.19-6.56,6.92-6.6,29.34-.17,56.41-23.74,59.29-52.9,1.45-14.65.89-29.51.92-44.27.09-35.08-27.4-62.6-62.46-62.64-38.2-.05-76.4-.05-114.6,0-34.76.05-62.26,27.59-62.31,62.31-.02,12.12-.04,24.25,0,36.37.14,33.58,27.71,61.12,61.27,61.2,15.94.04,31.89-.1,47.83.13,2.35.03,5.18,1.1,6.94,2.65,11.44,10.12,22.64,20.51,33.92,30.8,6.84,6.24,13.7,12.45,20.55,18.68ZM178.42,67.06c.9-7.48-2.27-11.69-8.9-11.81-10.42-.19-20.85-.19-31.27,0-6.94.12-10.17,4.46-9,11.81h49.17ZM22.83,128.38c-7.3-.67-11.54,2.55-11.65,9.26-.16,10.27-.14,20.54,0,30.81.07,5.11,3.14,8.55,7.76,9.59,2.47.56,3.9.07,3.89-2.73,0-15.54,0-31.08,0-46.94ZM284.42,128.46c0,14.89-.04,29.46.05,44.03,0,1.7.5,4.77,1.06,4.84,2.14.26,5.27.33,6.43-.96,2.13-2.37,4.23-5.7,4.4-8.74.55-9.75.27-19.54.18-29.32-.07-7.39-4.32-10.81-12.12-9.85ZM160.06,17.89c.13-3.48-2.63-6.48-6.12-6.4-3.67.08-5.87,2.08-6.26,5.74-.36,3.4,2.48,6.57,5.84,6.78,3.3.2,6.41-2.71,6.54-6.11Z" style="fill: #fff;"/>
      <path d="M153.98,207.09c-16.94-.59-32.26-6.31-44.97-18.41-3.54-3.37-4.19-7.09-1.57-9.45,3.32-2.99,6.19-1.62,9.12,1.05,22.82,20.76,52.45,20.81,75.4.23,3.82-3.43,7.28-3.97,9.42-1.1,2.73,3.66,1.2,6.7-1.86,9.5-12.77,11.7-27.83,17.59-45.53,18.19Z" style="fill: #fff;"/>
      <path d="M119.81,122.59c5.88.02,10,4.06,10.04,9.85.04,6.08-4.1,10.11-10.31,10.02-5.8-.08-9.94-4.3-9.86-10.04.09-5.77,4.29-9.85,10.12-9.83Z" style="fill: #fff;"/>
      <path d="M187.94,122.59c5.94.08,9.81,4.13,9.73,10.19-.07,6.03-3.98,9.76-10.15,9.69-6.05-.07-9.82-3.98-9.74-10.1.09-5.99,4.1-9.86,10.15-9.78Z" style="fill: #fff;"/>
    </g>
  </g>
</svg>