<?xml version="1.0" encoding="UTF-8"?>
<svg id="a" data-name="Livello_1" xmlns="http://www.w3.org/2000/svg" viewBox="0 0 436.4 129.3">
  <g>
    <path d="M14.07,78.24c-1.02-.41-2.21-.97-3.57-1.68-1.36-.71-2.65-1.65-3.87-2.8-1.22-1.16-2.17-2.55-2.85-4.18-.68-1.97-1.14-3.91-1.38-5.81-.24-1.9-.32-4.11-.25-6.62,0-3.53.25-6.6.76-9.22.51-2.61,1.31-5.28,2.39-8,.14-.2.39-.8.76-1.78.37-.98.81-2.05,1.32-3.21.51-1.15.9-2.04,1.17-2.65.54-1.15,1.38-2.7,2.5-4.64,1.12-1.94,2.33-3.82,3.62-5.65,1.97-2.92,3.63-5.31,4.99-7.18,1.36-1.87,2.67-3.45,3.92-4.74,1.26-1.29,2.65-2.55,4.18-3.77,1.53-1.22,3.45-2.61,5.76-4.18,1.49-1.09,3.41-1.77,5.76-2.04,2.34-.27,4.64.09,6.88,1.07,2.24.99,3.91,2.84,4.99,5.55.75,1.43,1.09,3.21,1.02,5.35-.07,2.14-.48,4.42-1.22,6.83-.75,2.41-1.7,4.67-2.85,6.78-1.16,2.11-2.45,3.81-3.87,5.09-.88.81-2.06.95-3.52.41-1.46-.54-2.67-1.26-3.62-2.14-.61-1.15-.93-1.83-.97-2.04-.04-.2.08-.34.36-.41.41-.47.95-1.29,1.63-2.45.68-1.15,1.36-2.39,2.04-3.72.68-1.32,1.15-2.39,1.43-3.21.54-2.85.92-4.74,1.12-5.65.2-.92,0-1.68-.61-2.29-.27-.27-.66-.37-1.17-.31-.51.07-1.34.41-2.5,1.02-1.56.68-3.41,2.06-5.55,4.13-2.14,2.07-4.26,4.53-6.37,7.39-2.72,3.6-4.99,6.79-6.83,9.58-1.83,2.79-3.23,5.64-4.18,8.56-.14.27-.51,1.16-1.12,2.65.07.27-.03.93-.31,1.99-.27,1.05-.58,1.95-.92,2.7-.75,3.13-1.19,6.13-1.32,9.02-.14,2.89.05,5.4.56,7.54.51,2.14,1.27,3.72,2.29,4.74.88.61,2,.82,3.36.61,1.36-.2,2.92-.68,4.69-1.43,1.77-.75,3.67-1.56,5.71-2.45,1.63-.68,3.12-1.43,4.48-2.24,1.36-.81,2.38-1.53,3.06-2.14.54-.41,1.24-.83,2.09-1.27.85-.44,1.58-.66,2.19-.66.95-.34,1.66-.07,2.14.82.47.88.71,2,.71,3.36,0,.95-.68,2.11-2.04,3.46s-2.85,2.51-4.48,3.46c-.54.54-1.27,1.04-2.19,1.48-.92.44-1.85.83-2.8,1.17-1.43,1.09-3.19,2.14-5.3,3.16-2.11,1.02-4.23,1.8-6.37,2.34-2.14.54-4.09.64-5.86.31Z"/>
    <path d="M57.27,70.8c-.88,0-1.58-.17-2.09-.51-.51-.34-1.14-.82-1.88-1.43-1.29-1.36-2.33-2.82-3.11-4.38-.78-1.56-1.07-2.92-.87-4.08.2-.54.27-1.32.2-2.34-.34-.34-.44-.56-.31-.66.14-.1.27-.29.41-.56.41,0,.54-.37.41-1.12-.14-.54.08-1.71.66-3.52.58-1.8,1.38-3.52,2.39-5.15.41-.68,1.02-1.58,1.83-2.7.82-1.12,1.71-2.24,2.7-3.36.98-1.12,1.88-2.02,2.7-2.7,1.7-1.43,3.28-2.58,4.74-3.46,1.46-.88,2.94-1.49,4.43-1.83,1.49-.34,3.04-.51,4.64-.51s2.9.54,3.92,1.63c1.56.68,2.67,1.6,3.31,2.75.65,1.16,1.07,2.65,1.27,4.48.2,2.04,0,4.53-.61,7.49-.61,2.95-2.28,6.37-4.99,10.24-1.7,2.45-3.36,4.35-4.99,5.71-1.63,1.36-3.43,2.62-5.4,3.77-1.43.95-2.95,1.53-4.58,1.73-1.63.2-3.23.37-4.79.51ZM67.66,58.37c1.49-1.29,2.56-2.72,3.21-4.28.65-1.56,1.34-3.4,2.09-5.5.27-.41.46-1.09.56-2.04.1-.95.12-1.89.05-2.8-.07-.92-.31-1.44-.71-1.58-.61-.47-1.22-.59-1.83-.36-.61.24-1.39.7-2.34,1.38-2.04,1.7-3.92,3.65-5.65,5.86-1.73,2.21-2.94,4.91-3.62,8.1-.2,1.7-.02,2.97.56,3.82.58.85,1.53,1.09,2.85.71,1.32-.37,2.94-1.48,4.84-3.31Z"/>
    <path d="M112.19,83.54c-.41.27-1.34.08-2.8-.56-1.46-.65-2.67-1.51-3.62-2.6-.48-.54-.78-1.12-.92-1.73-.14-.61-.1-1.77.1-3.46.27-.75.42-1.55.46-2.39.03-.85.05-1.41.05-1.68,0-.41.12-1.36.36-2.85.24-1.49.49-3.07.76-4.74.27-1.66.51-2.94.71-3.82,0-.07.03-.24.1-.51.07-.27.14-.51.2-.71.14-.61.32-1.43.56-2.45.24-1.02.46-2.27.66-3.77.34-1.29.68-2.33,1.02-3.11.34-.78.58-1.61.71-2.5-.82,0-1.85.07-3.11.2-1.26.14-2.53.32-3.82.56-1.29.24-2.39.44-3.31.61-.92.17-1.44.32-1.58.46-.27.14-.56.6-.87,1.38-.31.78-.63,1.8-.97,3.06-.34,1.26-.65,2.7-.92,4.33-.82,3.12-1.26,6.33-1.32,9.63-.07,3.29.1,5.72.51,7.29.41,1.63.22,3.11-.56,4.43-.78,1.33-1.58,2.16-2.39,2.5-1.29.07-2.58-1.05-3.87-3.36-1.29-2.31-1.94-5.13-1.94-8.46-.27-2.78-.04-6.33.71-10.65.75-4.31,1.87-9.15,3.36-14.52.54-1.83,1.29-4.01,2.24-6.52.95-2.51,1.95-4.99,3.01-7.44,1.05-2.45,1.99-4.5,2.8-6.16.81-1.66,1.32-2.6,1.53-2.8.41.14.61-.17.61-.92,0-.14.27-.65.81-1.53.54-.88,1.05-1.83,1.53-2.85.88-1.29,2.02-2.61,3.41-3.97,1.39-1.36,2.82-2.6,4.28-3.72,1.46-1.12,2.73-1.88,3.82-2.29,1.02-.41,2.04-.61,3.06-.61,1.7,0,3.33.54,4.89,1.63,1.56,1.09,2.68,2.51,3.36,4.28,1.15-1.36,2.51-2.56,4.08-3.62,1.56-1.05,2.78-1.92,3.67-2.6,1.49-.75,2.72-1.26,3.67-1.53.95-.27,2.14-.41,3.57-.41,1.29,0,2.53.41,3.72,1.22,1.19.82,2.22,1.63,3.11,2.45.95,1.02,1.49,1.7,1.63,2.04.14.34.2.99.2,1.94-.14.68-.54,1.65-1.22,2.9-.68,1.26-1.48,2.56-2.39,3.92-.92,1.36-1.77,2.53-2.55,3.52-.78.99-1.31,1.48-1.58,1.48-1.56.48-2.34-.34-2.34-2.45,0-.47-.51-1.15-1.53-2.04,0-.2.05-.59.15-1.17.1-.58.29-1.1.56-1.58.34-.68.42-1.36.25-2.04-.17-.68-.63-.92-1.38-.71-.2.14-.6.42-1.17.87-.58.44-1.19.92-1.83,1.43-.65.51-1.21,1.02-1.68,1.53-.48.51-.71.87-.71,1.07-.54,1.16-1.19,2.17-1.94,3.06-.48.68-.9,1.34-1.27,1.99-.37.65-.56,1.04-.56,1.17,0,.27-.02.56-.05.87-.04.31-.22.46-.56.46-.41,1.22-.88,2.31-1.43,3.26-.27.68-.61,1.38-1.02,2.09-.41.71-.75,1.21-1.02,1.48h.1c-.61,1.5-1.09,2.63-1.43,3.41-.34.78-.51,1.24-.51,1.38,0,.27.42.41,1.27.41s1.87-.12,3.06-.36c1.19-.24,2.33-.49,3.41-.76.95-.27,1.6-.41,1.94-.41s1.02.14,2.04.41c.54.34,1,1,1.38,1.99.37.99.64,1.94.81,2.85.17.92.15,1.51-.05,1.78-.07.27-.82.65-2.24,1.12-1.43.48-2.85.85-4.28,1.12-1.22.27-2.58.58-4.08.92-1.5.34-2.8.65-3.92.92-1.12.27-1.68.51-1.68.71-.27,0-.51.15-.71.46-.2.31-.31.56-.31.76,0,.95-.14,1.67-.41,2.14-.14.41-.37,1.16-.71,2.24-.34,1.09-.7,2.29-1.07,3.62-.37,1.32-.68,2.53-.92,3.62-.24,1.09-.36,1.83-.36,2.24-.41.48-.65,1.07-.71,1.78-.07.71-.1,1.34-.1,1.89-.27.54-.44,1.04-.51,1.48-.07.44-.1.8-.1,1.07v.41c0,.2-.04.41-.1.61-.07.68-.15,1.58-.25,2.7-.1,1.12-.15,2.22-.15,3.31l-.31,2.96c-.07.88-.19,1.85-.36,2.9-.17,1.05-.43,1.75-.76,2.09ZM103.12,39.93c.27,0,.9-.08,1.88-.25.98-.17,2.19-.39,3.62-.66,1.43-.27,2.92-.51,4.48-.71l.61-1.12c1.02-2.85,1.87-5.15,2.55-6.88.68-1.73,1.36-3.31,2.04-4.74l.2-.92c0-.14.15-.54.46-1.22.31-.68.46-1.36.46-2.04.47-2.31.85-3.96,1.12-4.94.27-.98.27-1.61,0-1.88-.27-.27-1.02-.41-2.24-.41-.34-.07-.87.04-1.58.31-.71.27-1.36.6-1.94.97-.58.37-.87.73-.87,1.07v.41c-.2-.07-.7.34-1.48,1.22-.78.88-1.67,2-2.65,3.36-.99,1.36-1.89,2.72-2.7,4.08-.54,1.16-1.19,2.65-1.94,4.48-.75,1.83-1.7,4.25-2.85,7.23l-.81,2.45,1.63.2Z"/>
    <path d="M157.84,69.47c-2.04,1.16-4.2,1.82-6.47,1.99-2.28.17-4.4-.14-6.37-.92-1.97-.78-3.57-1.95-4.79-3.52-.68-.88-1.32-2.29-1.94-4.23-.61-1.94-.71-4.57-.31-7.9.41-3.12,1.38-6.28,2.9-9.48,1.53-3.19,3.41-6.01,5.65-8.46,2.24-2.45,4.69-4.11,7.34-4.99.95-.34,1.92-.59,2.9-.76.98-.17,2.29-.19,3.92-.05,1.56.2,2.96.6,4.18,1.17,1.22.58,2.1,1.21,2.65,1.88,1.09,1.09,1.8,2.14,2.14,3.16.34,1.02.47,2,.41,2.96-.34,2.17-1.31,4.52-2.9,7.03-1.6,2.51-3.82,4.38-6.67,5.6-1.16.48-2.51.78-4.08.92-1.56.14-3.7-.07-6.42-.61-1.63-.34-2.7-.17-3.21.51-.51.68-.73,2-.66,3.97.14,1.22.42,2.29.87,3.21.44.92,1.27,1.55,2.5,1.88,1.56.27,2.68.29,3.36.05.68-.24,1.53-.59,2.55-1.07.54-.34,1.07-.71,1.58-1.12s1.02-.81,1.53-1.22.93-.71,1.27-.92c.34-.27.68-.44,1.02-.51.34-.07.68-.1,1.02-.1.75.07,1.46.48,2.14,1.22.68.75,1.12,1.46,1.32,2.14,0,.54-.34,1.31-1.02,2.29-.68.99-1.58,2-2.7,3.06-1.12,1.05-2.36,1.99-3.72,2.8ZM156.51,46.75c.47-.2,1.17-.68,2.09-1.43.92-.75,1.75-1.54,2.5-2.39.75-.85,1.12-1.51,1.12-1.99,0-.75-.49-1.39-1.48-1.94-.99-.54-2.26-.65-3.82-.31-.54.14-1.19.51-1.94,1.12-.75.61-1.5,1.31-2.24,2.09-.75.78-1.39,1.53-1.94,2.24-.54.71-.92,1.27-1.12,1.68.27.34.81.61,1.63.81.81.2,1.71.31,2.7.31s1.82-.07,2.5-.2Z"/>
    <path d="M191.87,69.47c-2.04,1.16-4.2,1.82-6.47,1.99-2.28.17-4.4-.14-6.37-.92-1.97-.78-3.57-1.95-4.79-3.52-.68-.88-1.32-2.29-1.94-4.23-.61-1.94-.71-4.57-.31-7.9.41-3.12,1.38-6.28,2.9-9.48,1.53-3.19,3.41-6.01,5.65-8.46,2.24-2.45,4.69-4.11,7.34-4.99.95-.34,1.92-.59,2.9-.76.98-.17,2.29-.19,3.92-.05,1.56.2,2.96.6,4.18,1.17,1.22.58,2.1,1.21,2.65,1.88,1.09,1.09,1.8,2.14,2.14,3.16.34,1.02.47,2,.41,2.96-.34,2.17-1.31,4.52-2.9,7.03-1.6,2.51-3.82,4.38-6.67,5.6-1.16.48-2.51.78-4.08.92-1.56.14-3.7-.07-6.42-.61-1.63-.34-2.7-.17-3.21.51-.51.68-.73,2-.66,3.97.14,1.22.42,2.29.87,3.21.44.92,1.27,1.55,2.5,1.88,1.56.27,2.68.29,3.36.05.68-.24,1.53-.59,2.55-1.07.54-.34,1.07-.71,1.58-1.12s1.02-.81,1.53-1.22.93-.71,1.27-.92c.34-.27.68-.44,1.02-.51.34-.07.68-.1,1.02-.1.75.07,1.46.48,2.14,1.22.68.75,1.12,1.46,1.32,2.14,0,.54-.34,1.31-1.02,2.29-.68.99-1.58,2-2.7,3.06-1.12,1.05-2.36,1.99-3.72,2.8ZM190.54,46.75c.47-.2,1.17-.68,2.09-1.43.92-.75,1.75-1.54,2.5-2.39.75-.85,1.12-1.51,1.12-1.99,0-.75-.49-1.39-1.48-1.94-.99-.54-2.26-.65-3.82-.31-.54.14-1.19.51-1.94,1.12-.75.61-1.5,1.31-2.24,2.09-.75.78-1.39,1.53-1.94,2.24-.54.71-.92,1.27-1.12,1.68.27.34.81.61,1.63.81.81.2,1.71.31,2.7.31s1.82-.07,2.5-.2Z"/>
    <path d="M241.38,78.85c-2.92-1.9-4.64-3.8-5.15-5.71-.51-1.9.15-3.43,1.99-4.58.41-.27,1.21-.31,2.39-.1,1.19.2,2.09.61,2.7,1.22,1.36,1.22,2.9,1.99,4.64,2.29,1.73.31,3.85.12,6.37-.56,2.85-.88,5.04-1.99,6.57-3.31,1.53-1.33,3.24-3.14,5.15-5.45,1.43-1.83,2.43-3.63,3.01-5.4.58-1.77.85-3.38.82-4.84-.04-1.46-.39-2.56-1.07-3.31-1.7-2.38-3.8-4.02-6.32-4.94-2.51-.92-5.81-.83-9.88.25-.48.07-1.19.2-2.14.41-.95.2-1.8.39-2.55.56-.75.17-1.16.25-1.22.25-.48.14-.85.2-1.12.2s-.6.32-.97.97c-.37.65-.93,1.97-1.68,3.97-.75,2-1.87,5.08-3.36,9.22-1.43,4.14-2.63,7.08-3.62,8.81-.99,1.73-1.85,2.51-2.6,2.34-.75-.17-1.6-.9-2.55-2.19-.54-.95-1.14-2-1.78-3.16-.65-1.15-.63-2.34.05-3.57.34-.61.61-1.17.81-1.68.2-.51.47-1.41.82-2.7.34-1.02,1-2.8,1.99-5.35.98-2.55,2.16-5.54,3.52-8.97,1.36-3.43,2.78-6.98,4.28-10.65,1.49-3.67,2.94-7.13,4.33-10.39,1.39-3.26,2.56-6.01,3.52-8.25.95-2.1,1.53-3.63,1.73-4.58.2-.95.13-1.46-.2-1.53,0-.34-.1-.66-.31-.97s-.27-.59-.2-.87c0-.27.59-.65,1.78-1.12,1.19-.47,2.46-.92,3.82-1.32,1.36-.41,2.34-.54,2.95-.41.34,0,.75-.02,1.22-.05.47-.03.71-.19.71-.46.2,0,.85-.07,1.94-.2,1.09-.14,2.28-.14,3.57,0,4.55.41,8.29,1.72,11.21,3.92,2.92,2.21,4.35,5.72,4.28,10.55-.07,1.16-.54,2.65-1.43,4.48-.88,1.83-1.99,3.67-3.31,5.5-1.32,1.83-2.73,3.43-4.23,4.79-.88.75-1.82,1.51-2.8,2.29-.99.78-2.19,1.68-3.62,2.7,1.09.41,1.94.71,2.55.92,3.12,1.16,5.59,2.62,7.39,4.38,1.8,1.77,3.07,4.21,3.82,7.34.27,1.02.29,2.28.05,3.77-.24,1.49-.56,2.97-.97,4.43-.41,1.46-.85,2.7-1.33,3.72-.48.48-.99,1.22-1.53,2.24,0,.14-.27.66-.82,1.58-.54.92-1.19,1.92-1.94,3.01-.75,1.09-1.46,2.04-2.14,2.85-.68.54-1.65,1.31-2.9,2.29-1.26.98-2.62,1.95-4.08,2.9-1.46.95-2.84,1.66-4.13,2.14-1.9.82-4.02,1.38-6.37,1.68-2.34.31-4.57.34-6.67.1-2.11-.24-3.77-.73-4.99-1.48ZM248.72,36.56c2.24-.47,4.04-.87,5.4-1.17,1.36-.31,2.38-.59,3.06-.87.34-.2.83-.47,1.48-.81.64-.34,1.31-.85,1.99-1.53.95-.88,1.97-1.88,3.06-3.01,1.08-1.12,2.16-2.33,3.21-3.62,1.05-1.29,1.95-2.68,2.7-4.18,1.56-2.45,2.41-4.21,2.55-5.3.14-1.09-.24-2.07-1.12-2.95-.61-.75-1.46-1.31-2.55-1.68-1.09-.37-2.26-.58-3.51-.61-1.26-.03-2.46.12-3.62.46-.88.27-1.56.6-2.04.97-.48.37-.71.93-.71,1.68,0,.61-.19,1.24-.56,1.88-.37.65-.73,1.14-1.07,1.48-.07.48-.48,1.16-1.22,2.04,0,.27-.42,1.1-1.27,2.5-.85,1.39-1.75,3.38-2.7,5.96-1.22,2.92-2.04,5.03-2.45,6.32-.41,1.29-.61,2.11-.61,2.45Z"/>
    <path d="M286.11,68.76c-.61-.47-1.27-1.09-1.99-1.83-.71-.75-.97-1.8-.76-3.16.2-1.9.47-3.58.82-5.04.34-1.46.75-3.14,1.22-5.04.13-.82.49-2.21,1.07-4.18.58-1.97,1.27-4.11,2.09-6.42.82-2.31,1.66-4.5,2.55-6.57.88-2.07,1.66-3.62,2.34-4.64.75-.68,1.85-1.02,3.31-1.02s2.46.27,3.01.82c.75.61.98,1.68.71,3.21-.27,1.53-1.22,3.89-2.85,7.08-.34.82-.76,1.68-1.27,2.6-.51.92-.87,1.67-1.07,2.24-.2.58-.14.83.2.76.41-.75,1.15-1.61,2.24-2.6,1.09-.98,2.24-1.95,3.46-2.9,1.22-.95,2.38-1.8,3.46-2.55,1.09-.75,1.83-1.22,2.24-1.43.54-.34,1.17-.63,1.89-.87.71-.24,1.21-.42,1.48-.56,1.56-.75,3.28-1.04,5.15-.87,1.87.17,3.01.76,3.41,1.78.07.54.47,1.09,1.22,1.63.27,0,.44.2.51.61,0,.48-.46,1.16-1.38,2.04-.92.88-1.92,1.36-3.01,1.43-.88.07-1.67.24-2.34.51-.68.27-1.5.61-2.45,1.02-2.58,1.5-4.91,2.82-6.98,3.97-2.07,1.16-4.2,2.92-6.37,5.3-.48.54-.99,1.05-1.53,1.53-.54.48-1.09,1.16-1.63,2.04-.34.34-.68,1.09-1.02,2.24-.34,1.16-.63,2.26-.87,3.31-.24,1.05-.36,1.68-.36,1.89-.41,1.29-.85,2.24-1.32,2.85-.82,1.09-1.61,1.77-2.39,2.04-.78.27-1.72-.14-2.8-1.22Z"/>
    <path d="M340.52,69.47c-2.04,1.16-4.19,1.82-6.47,1.99-2.28.17-4.4-.14-6.37-.92-1.97-.78-3.57-1.95-4.79-3.52-.68-.88-1.32-2.29-1.94-4.23-.61-1.94-.71-4.57-.31-7.9.41-3.12,1.38-6.28,2.9-9.48,1.53-3.19,3.41-6.01,5.66-8.46,2.24-2.45,4.69-4.11,7.34-4.99.95-.34,1.92-.59,2.9-.76.98-.17,2.29-.19,3.92-.05,1.56.2,2.95.6,4.18,1.17,1.22.58,2.11,1.21,2.65,1.88,1.09,1.09,1.8,2.14,2.14,3.16.34,1.02.47,2,.41,2.96-.34,2.17-1.31,4.52-2.9,7.03-1.6,2.51-3.82,4.38-6.67,5.6-1.16.48-2.51.78-4.08.92-1.56.14-3.7-.07-6.42-.61-1.63-.34-2.7-.17-3.21.51-.51.68-.73,2-.66,3.97.13,1.22.42,2.29.87,3.21.44.92,1.27,1.55,2.5,1.88,1.56.27,2.68.29,3.36.05.68-.24,1.53-.59,2.55-1.07.54-.34,1.07-.71,1.58-1.12.51-.41,1.02-.81,1.53-1.22.51-.41.93-.71,1.27-.92.34-.27.68-.44,1.02-.51.34-.07.68-.1,1.02-.1.75.07,1.46.48,2.14,1.22.68.75,1.12,1.46,1.33,2.14,0,.54-.34,1.31-1.02,2.29-.68.99-1.58,2-2.7,3.06-1.12,1.05-2.36,1.99-3.72,2.8ZM339.2,46.75c.47-.2,1.17-.68,2.09-1.43.92-.75,1.75-1.54,2.5-2.39.75-.85,1.12-1.51,1.12-1.99,0-.75-.49-1.39-1.48-1.94-.99-.54-2.26-.65-3.82-.31-.54.14-1.19.51-1.94,1.12-.75.61-1.5,1.31-2.24,2.09-.75.78-1.39,1.53-1.94,2.24-.54.71-.92,1.27-1.12,1.68.27.34.82.61,1.63.81.82.2,1.71.31,2.7.31s1.82-.07,2.5-.2Z"/>
    <path d="M357.33,69.37c-.27-.54-.87-1.09-1.78-1.63-.92-.54-1.38-.95-1.38-1.22s-.15-.7-.46-1.27c-.31-.58-.6-1-.87-1.27-.34-.41-.24-1.41.31-3.01.54-1.6,1.36-3.55,2.45-5.86,1.09-2.31,2.28-4.65,3.57-7.03.54-.54,1.08-1.26,1.63-2.14.54-.88.95-1.46,1.22-1.73,0-.27.1-.53.31-.76.2-.24.44-.36.71-.36l.82-1.63c.14-.27.56-.81,1.27-1.63.71-.81,1.58-1.71,2.6-2.7,1.02-.98,2.05-1.92,3.11-2.8,1.05-.88,1.92-1.53,2.6-1.94,1.43-.95,2.9-1.39,4.43-1.32,1.53.07,2.84.54,3.92,1.43.2.2.66.61,1.38,1.22.71.61,1.53,1.29,2.45,2.04.92.75,1.71,1.43,2.39,2.04l3.77,3.36-1.73,5.09c-.88,2.72-1.12,5.09-.71,7.13.41,2.04,1.05,3.8,1.94,5.3.34.75.8,1.32,1.38,1.73.58.41,1.34.68,2.29.81.54.07,1.05.27,1.53.61.47.34.71.88.71,1.63,0,1.63-.29,2.8-.87,3.52-.58.71-1.21,1.14-1.88,1.27-2.24.27-4.38.04-6.42-.71-2.04-.75-3.87-2.68-5.5-5.81-.27-.41-.63-1.17-1.07-2.29-.44-1.12-.7-1.85-.76-2.19-.27.34-.63.76-1.07,1.27-.44.51-.87.97-1.27,1.38-4.82,4.89-8.95,8.07-12.38,9.53-3.43,1.46-6.3,1.44-8.61-.05ZM365.18,60.15c1.02-.58,2.38-1.54,4.08-2.9,2.31-1.97,4.21-3.6,5.71-4.89,1.49-1.29,2.95-2.96,4.38-4.99l2.24-3.67c-.68-1.56-1.29-2.58-1.83-3.06-.54-.47-1.09-.71-1.63-.71-.88,0-1.94.56-3.16,1.68s-2.6,2.75-4.13,4.89-3.24,4.81-5.15,8c-.88,1.5-1.8,3.63-2.75,6.42.47.07,1.22-.19,2.24-.76Z"/>
    <path d="M403.18,71.82c-.54-.2-1.26-.76-2.14-1.68-.88-.92-1.67-1.94-2.34-3.06-.68-1.12-1.02-2.05-1.02-2.8.34-.75.8-2.07,1.38-3.97.58-1.9,1.24-4.04,1.99-6.42.54-.75.97-1.61,1.27-2.6.31-.98.59-1.89.87-2.7.54-1.22,1.15-2.61,1.83-4.18.68-1.56,1.34-3.16,1.99-4.79.64-1.63,1.24-3.06,1.78-4.28.95-2.04,1.75-3.82,2.39-5.35.65-1.53,1.29-3.04,1.94-4.53.64-1.49,1.34-3.16,2.09-4.99,1.02-2.1,1.95-4.19,2.8-6.27.85-2.07,1.59-3.92,2.24-5.55.64-1.63,1.04-2.78,1.17-3.46-.07-.54,0-.93.2-1.17.2-.24.47-.39.81-.46.34-.2.88-.34,1.63-.41.75-.07,1.26-.1,1.53-.1.81.14,1.65.8,2.5,1.99.85,1.19,1.27,2.19,1.27,3.01,0,1.09-.53,3.11-1.58,6.06-1.05,2.95-2.56,6.44-4.53,10.44-2.38,5.09-4.16,9.03-5.35,11.82-1.19,2.79-1.99,4.76-2.39,5.91-.41,1.16-.58,1.9-.51,2.24,1.09-.41,2.17-.98,3.26-1.73.75-.47,1.59-1.09,2.55-1.83.95-.75,1.88-1.43,2.8-2.04s1.65-.98,2.19-1.12c.34-.27.82-.61,1.43-1.02.61-.41,1.19-.78,1.73-1.12,1.29-.95,2.31-1.26,3.06-.92.75.34,1.43.92,2.04,1.73.75.88,1.03,1.82.87,2.8-.17.99-1.24,2.26-3.21,3.82-1.5,1.09-3.09,2.12-4.79,3.11-1.7.99-3.24,1.85-4.64,2.6-1.39.75-2.39,1.36-3.01,1.83,1.22,1.77,2.1,3.06,2.65,3.87.54,1.09,1.22,2.46,2.04,4.13.82,1.67,1.43,2.84,1.83,3.52.75,1.09,1.51,1.8,2.29,2.14.78.34,1.95.24,3.52-.31,1.02-.27,1.88-.25,2.6.05s1.31.8,1.78,1.48c.27.54.41,1.09.41,1.63s-.44,1.19-1.32,1.94c-1.9,1.29-3.75,2.39-5.55,3.31-1.8.92-3.52.83-5.15-.25-1.43-1.09-2.77-2.33-4.03-3.72-1.26-1.39-2.67-3.11-4.23-5.15,0-.27-.2-.85-.61-1.73-.41-.88-.68-1.39-.82-1.53-.27-.54-.71-1.26-1.33-2.14-.2-.75-.46-1.36-.76-1.83-.31-.47-.7-.75-1.17-.81-.27.2-.58.54-.92,1.02-.34.48-.68,1.05-1.02,1.73-.41,1.02-.82,2.02-1.22,3.01-.41.99-.75,2.04-1.02,3.16-.27,1.12-.44,2.46-.51,4.02.07.75-.24,1.55-.92,2.39-.68.85-1.56,1.27-2.65,1.27Z"/>
  </g>
  <g>
    <path d="M0,115.81v-17.73h3.27v17.6c0,7.34,3.45,10.7,9.46,10.7s9.51-3.36,9.51-10.7v-17.6h3.18v17.73c0,8.89-4.78,13.49-12.69,13.49S0,124.7,0,115.81Z"/>
    <path d="M42.98,100.91v12.16h16.01v2.83h-16.01v13.13h-3.27v-30.95h21.23v2.83h-17.95Z"/>
    <path d="M75.39,100.91v12.16h16.01v2.83h-16.01v13.13h-3.27v-30.95h21.23v2.83h-17.95Z"/>
    <path d="M104.53,98.08h3.27v30.95h-3.27v-30.95Z"/>
    <path d="M119.56,113.56c0-9.07,6.9-15.74,16.23-15.74,4.51,0,8.58,1.5,11.32,4.51l-2.08,2.08c-2.52-2.56-5.62-3.67-9.15-3.67-7.47,0-13.09,5.48-13.09,12.82s5.62,12.82,13.09,12.82c3.54,0,6.63-1.11,9.15-3.71l2.08,2.08c-2.74,3.01-6.81,4.55-11.36,4.55-9.29,0-16.18-6.68-16.18-15.74Z"/>
    <path d="M158.52,98.08h3.27v30.95h-3.27v-30.95Z"/>
    <path d="M173.55,113.56c0-9.02,6.9-15.74,16.27-15.74s16.23,6.68,16.23,15.74-6.94,15.74-16.23,15.74-16.27-6.72-16.27-15.74ZM202.78,113.56c0-7.38-5.53-12.82-12.96-12.82s-13.04,5.44-13.04,12.82,5.57,12.82,13.04,12.82,12.96-5.44,12.96-12.82Z"/>
    <path d="M233.82,98.08h12.6c9.91,0,16.58,6.37,16.58,15.48s-6.68,15.48-16.58,15.48h-12.6v-30.95ZM246.25,126.21c8.22,0,13.53-5.22,13.53-12.65s-5.31-12.65-13.53-12.65h-9.15v25.29h9.15Z"/>
    <path d="M274.77,98.08h3.27v30.95h-3.27v-30.95Z"/>
    <path d="M314.34,113.56h3.14v11.81c-2.92,2.61-7.08,3.94-11.37,3.94-9.42,0-16.32-6.68-16.32-15.74s6.9-15.74,16.36-15.74c4.69,0,8.75,1.5,11.5,4.47l-2.03,2.08c-2.61-2.56-5.7-3.63-9.33-3.63-7.65,0-13.27,5.44-13.27,12.82s5.62,12.82,13.22,12.82c2.96,0,5.71-.66,8.09-2.39v-10.44Z"/>
    <path d="M331.15,98.08h3.27v30.95h-3.27v-30.95Z"/>
    <path d="M354.93,100.91h-10.88v-2.83h25.03v2.83h-10.88v28.12h-3.27v-28.12Z"/>
    <path d="M396.59,120.77h-17.25l-3.71,8.27h-3.4l14.15-30.95h3.23l14.15,30.95h-3.45l-3.71-8.27ZM395.4,118.11l-7.43-16.63-7.43,16.63h14.86Z"/>
    <path d="M413.3,98.08h3.27v28.12h17.33v2.83h-20.61v-30.95Z"/>
  </g>
</svg>